name Walk5.mot
datacolumns 19
datarows 15
range 1.11000000 1.18000000
endheader

                time	   L_ground_force_vx	   L_ground_force_vy	   L_ground_force_vz	   L_ground_force_px	   L_ground_force_py	   L_ground_force_pz	   R_ground_force_vx	   R_ground_force_vy	   R_ground_force_vz	   R_ground_force_px	   R_ground_force_py	   R_ground_force_pz	   L_ground_torque_x	   L_ground_torque_y	   L_ground_torque_z	   R_ground_torque_x	   R_ground_torque_y	   R_ground_torque_z	
          1.11000000	        -12.82360021	        111.54688452	         -7.75157002	         -0.10100502	          0.00000000	         -0.01780619	          0.00000002	          0.00000008	          0.00000001	          0.00000000	          0.00000000	          0.00000000	          0.00000000	          0.24128864	          0.00000000	          0.00000000	         -0.00000000	          0.00000000	
          1.11500000	        -18.32670147	        156.35288980	        -10.33871137	         -0.13087878	          0.00000000	         -0.02314194	          0.00000002	          0.00000021	          0.00000002	          0.00000000	          0.00000000	          0.00000000	          0.00000000	          0.35951728	          0.00000000	          0.00000000	         -0.00000000	          0.00000000	
          1.12000000	        -24.64867627	        206.94201658	        -13.09819339	         -0.16135619	          0.00000000	         -0.02861454	          0.00000001	          0.00000039	          0.00000004	          0.00000000	          0.00000000	          0.00000000	          0.00000000	          0.49955267	          0.00000000	          0.00000000	         -0.00000001	          0.00000000	
          1.12500000	        -31.50144360	        260.46185976	        -15.79368495	         -0.18987437	          0.00000000	         -0.03378713	          0.00000000	          0.00000062	          0.00000005	          0.00000000	          0.00000000	          0.00000000	          0.00000000	          0.65681978	          0.00000000	          0.00000000	         -0.00000000	          0.00000000	
          1.13000000	        -38.56200273	        313.31769742	        -18.10201305	         -0.21468621	          0.00000000	         -0.03839120	         -0.00000001	          0.00000091	          0.00000008	          0.00000000	          0.00000000	          0.00000000	          0.00000000	          0.82494182	          0.00000000	          0.00000000	         -0.00000000	          0.00000000	
          1.13500000	        -45.63798348	        362.69383157	        -19.66526692	         -0.23494658	          0.00000000	         -0.04232195	         -0.00000003	          0.00000125	          0.00000010	          0.00000000	          0.00000000	          0.00000000	          0.00000000	          0.99766909	          0.00000000	          0.00000000	         -0.00000000	          0.00000000	
          1.14000000	        -52.65132811	        406.92168710	        -20.19728135	         -0.25045652	          0.00000000	         -0.04558019	         -0.00000006	          0.00000163	          0.00000013	          0.00000000	          0.00000000	          0.00000000	          0.00000000	          1.16905824	          0.00000000	          0.00000000	          0.00000000	          0.00000000	
          1.14500000	        -59.55947781	        445.29411465	        -19.55737533	         -0.26144290	          0.00000000	         -0.04822721	         -0.00000010	          0.00000201	          0.00000016	          0.00000000	          0.00000000	          0.00000000	          0.00000000	          1.33306261	          0.00000000	          0.00000000	          0.00000001	          0.00000000	
          1.15000000	        -66.35766802	        478.13298456	        -17.74626989	         -0.26838760	          0.00000000	         -0.05035540	         -0.00000015	          0.00000235	          0.00000018	          0.00000000	          0.00000000	          0.00000000	          0.00000000	          1.48396446	          0.00000000	          0.00000000	          0.00000001	          0.00000000	
          1.15500000	        -73.11730830	        506.59024235	        -14.86570914	         -0.27190113	          0.00000000	         -0.05206617	         -0.00000021	          0.00000260	          0.00000019	          0.00000000	          0.00000000	          0.00000000	          0.00000000	          1.61664006	          0.00000000	          0.00000000	          0.00000002	          0.00000000	
          1.16000000	        -79.96921948	        532.17297650	        -11.07102304	         -0.27263605	          0.00000000	         -0.05345659	         -0.00000027	          0.00000267	          0.00000019	          0.00000000	          0.00000000	          0.00000000	          0.00000000	          1.72618965	          0.00000000	          0.00000000	          0.00000003	          0.00000000	
          1.16500000	        -87.01083328	        556.27208488	         -6.53607151	         -0.27123747	          0.00000000	         -0.05460968	         -0.00000033	          0.00000245	          0.00000016	          0.00000000	          0.00000000	          0.00000000	          0.00000000	          1.80848350	          0.00000000	          0.00000000	          0.00000005	          0.00000000	
          1.17000000	        -94.18963875	        579.83841501	         -1.44185256	         -0.26831538	          0.00000000	         -0.05558874	         -0.00000039	          0.00000181	          0.00000009	          0.00000000	          0.00000000	          0.00000000	          0.00000000	          1.86161483	          0.00000000	          0.00000000	          0.00000006	          0.00000000	
          1.17500000	       -101.24002908	        603.28147806	          4.03142457	         -0.26442400	          0.00000000	         -0.05643673	         -0.00000043	          0.00000057	         -0.00000002	         -0.00000000	          0.00000000	         -0.00000000	          0.00000000	          1.88762318	          0.00000000	          0.00000000	          0.00000008	          0.00000000	
          1.18000000	       -107.71208383	        626.57379752	          9.71016185	         -0.26004439	          0.00000000	         -0.05718244	         -0.00000045	         -0.00000142	         -0.00000020	         -0.00000000	          0.00000000	         -0.00000000	          0.00000000	          1.89290783	          0.00000000	          0.00000000	          0.00000009	          0.00000000	
